<svg width="1550" height="841" viewBox="0 0 1550 841" fill="none" xmlns="http://www.w3.org/2000/svg">
<g clip-path="url(#clip0_1_44)">
<path d="M1550 0H0V841H1550V0Z" fill="#1E1E1E"/>
<path d="M1712.21 590.191C1640.22 513.941 1568.06 437.69 1452.49 418.207C1336.93 398.723 1177.97 436.148 1119.42 390.454C1061.03 344.619 1103.06 215.806 1078.94 121.474C1054.83 27.2818 964.417 -32.4292 874 -92H1712.21V590.191Z" fill="#1B1B1B"/>
<path d="M-176 341C-62.1611 346.046 51.5056 351.232 144.85 392.862C238.022 434.491 310.7 512.704 360.989 586.152C411.45 659.459 439.35 728 485.85 800.046C532.35 872.091 597.278 947.641 662.206 1023.19H-176V341Z" fill="#1B1B1B"/>
</g>
<defs>
<clipPath id="clip0_1_44">
<rect width="1550" height="841" fill="white"/>
</clipPath>
</defs>
</svg>
